<svg width="83" height="64" viewBox="0 0 83 64" fill="none" xmlns="http://www.w3.org/2000/svg">
<g clip-path="url(#clip0_104_11)">
<path d="M15.0891 63.6819V59.446C15.0891 57.8219 14.0925 56.7632 12.3842 56.7632C11.5302 56.7632 10.6049 57.0455 9.96421 57.9634C9.46621 57.1867 8.75455 56.7632 7.6869 56.7632C6.97492 56.7632 6.26358 56.9748 5.69393 57.7515V56.9044H4.19928V63.6819H5.69393V59.94C5.69393 58.7401 6.33458 58.175 7.33123 58.175C8.32723 58.175 8.82588 58.8105 8.82588 59.94V63.6819H10.3205V59.94C10.3205 58.7401 11.0319 58.175 11.9572 58.175C12.9538 58.175 13.4518 58.8105 13.4518 59.94V63.6819H15.0891ZM37.2239 56.9044H34.8042V54.857H33.3096V56.9044H31.9573V58.2455H33.3093V61.3522C33.3093 62.9056 33.9499 63.8231 35.6582 63.8231C36.2989 63.8231 37.0102 63.6115 37.5089 63.3291L37.0815 62.0581C36.6545 62.3405 36.1565 62.4112 35.8006 62.4112C35.0889 62.4112 34.8042 61.9877 34.8042 61.2814V58.2455H37.2239V56.9044ZM49.893 56.7628C49.0391 56.7628 48.4697 57.1867 48.1137 57.7515V56.9044H46.6191V63.6819H48.1137V59.8696C48.1137 58.7401 48.6117 58.1046 49.5371 58.1046C49.8217 58.1046 50.1777 58.1753 50.4624 58.2458L50.8894 56.8339C50.6047 56.7632 50.1777 56.7632 49.893 56.7632V56.7628ZM30.7473 57.4691C30.0353 56.9748 29.039 56.7632 27.9713 56.7632C26.2633 56.7632 25.1247 57.6103 25.1247 58.9517C25.1247 60.0815 25.9787 60.7167 27.4733 60.9286L28.185 60.9994C28.968 61.1403 29.395 61.3522 29.395 61.7053C29.395 62.1993 28.8256 62.5524 27.829 62.5524C26.8327 62.5524 26.0497 62.1993 25.5514 61.8465L24.8397 62.976C25.6227 63.5407 26.6903 63.8231 27.7577 63.8231C29.7506 63.8231 30.8896 62.9056 30.8896 61.6346C30.8896 60.4343 29.9643 59.7988 28.5406 59.5872L27.829 59.5165C27.1883 59.4457 26.6903 59.3048 26.6903 58.8813C26.6903 58.387 27.1883 58.1046 27.9713 58.1046C28.8256 58.1046 29.6796 58.4574 30.1066 58.6693L30.7473 57.4691ZM70.4625 56.7632C69.6081 56.7632 69.0388 57.1867 68.6828 57.7515V56.9044H67.1882V63.6819H68.6828V59.8696C68.6828 58.7401 69.1812 58.1046 70.1061 58.1046C70.3911 58.1046 70.7471 58.1753 71.0318 58.2458L71.4588 56.8339C71.1741 56.7632 70.7471 56.7632 70.4625 56.7632ZM51.3877 60.2931C51.3877 62.3405 52.811 63.8231 55.0177 63.8231C56.014 63.8231 56.7256 63.6115 57.4373 63.0467L56.7256 61.8465C56.1563 62.2701 55.587 62.4817 54.9463 62.4817C53.7363 62.4817 52.8823 61.6346 52.8823 60.2931C52.8823 59.0225 53.7363 58.175 54.9463 58.1046C55.587 58.1046 56.1563 58.3162 56.7256 58.7401L57.4373 57.5398C56.7256 56.9748 56.014 56.7632 55.0177 56.7632C52.811 56.7632 51.3877 58.2458 51.3877 60.2931ZM65.1955 60.2931V56.9044H63.7009V57.7515C63.2026 57.1163 62.4909 56.7632 61.5656 56.7632C59.6439 56.7632 58.1493 58.2458 58.1493 60.2931C58.1493 62.3405 59.6439 63.8231 61.5656 63.8231C62.5619 63.8231 63.2739 63.4703 63.7009 62.8348V63.6819H65.1955V60.2931ZM59.7149 60.2931C59.7149 59.0929 60.4979 58.1046 61.7789 58.1046C62.9889 58.1046 63.8432 59.0225 63.8432 60.2931C63.8432 61.4934 62.9889 62.4817 61.7789 62.4817C60.4979 62.4109 59.7149 61.4934 59.7149 60.2931ZM41.8505 56.7632C39.8575 56.7632 38.4339 58.175 38.4339 60.2931C38.4339 62.4112 39.8572 63.8231 41.9215 63.8231C42.9178 63.8231 43.9145 63.5407 44.6974 62.9056L43.9855 61.8465C43.4161 62.2701 42.7045 62.5524 41.9928 62.5524C41.0675 62.5524 40.1422 62.1289 39.9285 60.9283H44.9821V60.3639C45.0534 58.175 43.7721 56.7632 41.8502 56.7632H41.8505ZM41.8505 58.0338C42.7755 58.0338 43.4165 58.5989 43.5585 59.658H39.9998C40.1422 58.7401 40.7828 58.0338 41.8505 58.0338ZM78.932 60.2931V54.2215H77.4374V57.7515C76.9391 57.1163 76.2274 56.7632 75.3021 56.7632C73.3804 56.7632 71.8858 58.2458 71.8858 60.2931C71.8858 62.3405 73.3804 63.8231 75.3021 63.8231C76.2987 63.8231 77.0104 63.4703 77.4374 62.8348V63.6819H78.932V60.2931ZM73.4518 60.2931C73.4518 59.0929 74.2344 58.1046 75.5157 58.1046C76.7257 58.1046 77.5797 59.0225 77.5797 60.2931C77.5797 61.4934 76.7257 62.4817 75.5157 62.4817C74.2344 62.4109 73.4518 61.4934 73.4518 60.2931ZM23.4874 60.2931V56.9044H21.9927V57.7515C21.4944 57.1163 20.7827 56.7632 19.8574 56.7632C17.9358 56.7632 16.4411 58.2458 16.4411 60.2931C16.4411 62.3405 17.9358 63.8231 19.8574 63.8231C20.8541 63.8231 21.5657 63.4703 21.9927 62.8348V63.6819H23.4874V60.2931ZM17.9358 60.2931C17.9358 59.0929 18.7188 58.1046 19.9998 58.1046C21.2097 58.1046 22.0641 59.0225 22.0641 60.2931C22.0641 61.4934 21.2097 62.4817 19.9998 62.4817C18.7188 62.4109 17.9358 61.4934 17.9358 60.2931Z" fill="white"/>
<path d="M30.249 5.43616H52.6687V45.3963H30.249V5.43616Z" fill="#FF5F00"/>
<path d="M31.6726 25.4164C31.6726 17.2974 35.5159 10.0959 41.4232 5.43614C37.0819 2.04736 31.6016 0 25.623 0C11.4589 0 0 11.3666 0 25.4164C0 39.4658 11.4589 50.8327 25.6227 50.8327C31.6013 50.8327 37.0815 48.7854 41.4232 45.3963C35.5159 40.8072 31.6726 33.5354 31.6726 25.4164Z" fill="#EB001B"/>
<path d="M82.9177 25.4164C82.9177 39.4658 71.4588 50.8327 57.295 50.8327C51.3164 50.8327 45.8361 48.7854 41.4945 45.3963C47.4731 40.7368 51.2454 33.5354 51.2454 25.4164C51.2454 17.2974 47.4018 10.0959 41.4945 5.43614C45.8358 2.04736 51.3164 0 57.295 0C71.4588 0 82.918 11.4373 82.918 25.4164H82.9177Z" fill="#F79E1B"/>
</g>
<defs>
<clipPath id="clip0_104_11">
<rect width="83" height="64" fill="white"/>
</clipPath>
</defs>
</svg>
